<?xml version="1.0" encoding="UTF-8"?>
<svg xmlns="http://www.w3.org/2000/svg" xmlns:xlink="http://www.w3.org/1999/xlink" width="24pt" height="24pt" viewBox="0 0 24 24" version="1.1">
<g id="surface1291365">
<path style=" stroke:none;fill-rule:nonzero;fill:rgb(100%,100%,100%);fill-opacity:1;" d="M 19.742188 3.488281 C 19.546875 3.492188 19.355469 3.578125 19.21875 3.71875 L 12 10.9375 L 4.78125 3.71875 C 4.640625 3.574219 4.445312 3.492188 4.242188 3.492188 C 3.9375 3.492188 3.660156 3.675781 3.546875 3.960938 C 3.433594 4.242188 3.5 4.566406 3.71875 4.78125 L 10.941406 12 L 3.71875 19.21875 C 3.523438 19.40625 3.445312 19.6875 3.511719 19.949219 C 3.582031 20.210938 3.789062 20.417969 4.050781 20.488281 C 4.3125 20.554688 4.59375 20.476562 4.78125 20.28125 L 12 13.058594 L 19.21875 20.28125 C 19.40625 20.476562 19.6875 20.554688 19.949219 20.488281 C 20.210938 20.417969 20.417969 20.210938 20.488281 19.949219 C 20.554688 19.6875 20.476562 19.40625 20.28125 19.21875 L 13.0625 12 L 20.28125 4.78125 C 20.503906 4.566406 20.570312 4.238281 20.453125 3.949219 C 20.335938 3.664062 20.050781 3.480469 19.742188 3.488281 Z M 19.742188 3.488281 "/>
</g>
</svg>
